<svg version="1.1" xmlns="http://www.w3.org/2000/svg" style="display: block;" viewBox="0 0 2048 2048" width="1024" height="1024" preserveAspectRatio="none">
<path transform="translate(0,0)" fill="rgb(31,57,84)" d="M 988.58 410.391 C 993.16 409.724 1004.48 409.423 1009.1 409.457 C 1050.29 409.721 1089.64 426.519 1118.32 456.078 C 1140.32 478.725 1155.06 507.417 1160.67 538.486 C 1164.6 560.047 1163.49 593.65 1163.46 616.493 L 1163.34 732.24 L 1163.38 985.75 C 1163.47 1037.88 1164.16 1090.68 1163.61 1142.75 C 1171.91 1149.58 1180.92 1155.67 1189.11 1162.75 C 1302.99 1261.17 1311.43 1428.89 1215.45 1541.99 C 1167.85 1597.21 1100.42 1631.48 1027.75 1637.38 C 1006.88 1639.65 974.24 1636.9 953.602 1633.08 C 883.853 1620.18 817.59 1574.75 777.942 1516.08 C 737.255 1456.54 722.323 1383.1 736.529 1312.4 C 750.14 1243.23 790.624 1182.28 849.105 1142.91 L 849.476 708.422 L 849.577 605.332 C 849.61 550.096 846.852 514.593 884.176 468.139 C 909.94 435.803 947.496 415.03 988.58 410.391 z M 873.127 1155.58 C 861.246 1164.98 849.538 1172.72 837.913 1182.91 C 809.487 1207.82 790.42 1233.67 775.384 1268.22 C 738.403 1353.21 752.909 1448.38 811.06 1520.68 C 852.834 1572.61 915.759 1606.02 982.926 1613.34 C 994.264 1614.68 1005.7 1615.05 1017.1 1614.43 C 1148.97 1611.02 1262.65 1490.58 1258.02 1358.5 C 1256.05 1292.56 1227.31 1230.27 1178.43 1185.96 C 1165.07 1173.65 1152.58 1166.47 1140.21 1155.78 C 1139.38 1102.11 1140.03 1046.95 1140.04 993.188 L 1139.9 725.992 L 1139.9 621.427 C 1139.88 563.389 1144.68 514.161 1098.08 470.513 C 1070.66 444.835 1040.4 432.004 1002.75 432.941 C 999.868 433.016 996.987 433.163 994.111 433.382 C 953.514 439.491 925.045 454.747 899.853 487.608 C 868.703 528.242 873.175 570.135 873.095 617.962 L 872.969 739.805 L 873.127 1155.58 z"/>
<path transform="translate(0,0)" fill="rgb(249,217,59)" d="M 933.27 648.988 L 933.28 598.286 C 933.26 567.738 930.284 540.192 954.205 517.029 C 983.818 488.354 1031.15 488.257 1059.76 518.466 C 1080.82 540.709 1079.52 564.686 1079.08 593.289 C 1079.18 611.138 1078.43 631.311 1078.93 648.863 L 1078.73 733.005 C 1078.71 744.188 1077.97 765.033 1078.9 774.924 L 1078.79 893.591 C 1077.94 937.937 1078.84 983.486 1078.84 1028 C 1079.42 1069.37 1078.97 1112.03 1079.03 1153.5 C 1030.49 1153.21 981.94 1153.17 933.394 1153.37 C 934.332 1111.94 933.673 1068.38 933.649 1026.82 C 933.55 986.235 934.719 941.313 933.124 901.154 L 933.115 775.036 C 933.694 763.181 933.184 747.028 933.171 734.91 C 933.048 706.27 933.081 677.629 933.27 648.988 z"/>
<path transform="translate(0,0)" fill="rgb(233,66,64)" d="M 933.27 648.988 L 933.28 598.286 C 933.26 567.738 930.284 540.192 954.205 517.029 C 983.818 488.354 1031.15 488.257 1059.76 518.466 C 1080.82 540.709 1079.52 564.686 1079.08 593.289 C 1079.18 611.138 1078.43 631.311 1078.93 648.863 L 933.27 648.988 z"/>
<path transform="translate(0,0)" fill="rgb(247,145,38)" d="M 933.27 648.988 L 1078.93 648.863 L 1078.73 733.005 C 1078.71 744.188 1077.97 765.033 1078.9 774.924 C 1031.34 775.902 980.897 775.08 933.115 775.036 C 933.694 763.181 933.184 747.028 933.171 734.91 C 933.048 706.27 933.081 677.629 933.27 648.988 z"/>
<path transform="translate(0,0)" fill="rgb(47,151,207)" d="M 933.649 1026.82 C 948.023 1026.99 1073.99 1026.16 1078.84 1028 C 1079.42 1069.37 1078.97 1112.03 1079.03 1153.5 C 1030.49 1153.21 981.94 1153.17 933.394 1153.37 C 934.332 1111.94 933.673 1068.38 933.649 1026.82 z"/>
<path transform="translate(0,0)" fill="rgb(72,180,101)" d="M 933.124 901.154 L 1024.33 901.125 C 1039.38 901.183 1062.7 902.078 1077.2 900.949 C 1078.88 898.384 1078.5 896.959 1078.79 893.591 C 1077.94 937.937 1078.84 983.486 1078.84 1028 C 1073.99 1026.16 948.023 1026.99 933.649 1026.82 C 933.55 986.235 934.719 941.313 933.124 901.154 z"/>
<path transform="translate(0,0)" fill="rgb(31,57,84)" d="M 997.919 1216.44 C 1004.54 1216.07 1010.26 1215.91 1016.92 1216.21 C 1058.85 1218.47 1098.2 1237.14 1126.46 1268.2 C 1151.36 1296.01 1170.15 1338.64 1167.76 1376.37 C 1166.8 1391.72 1161.35 1406.45 1152.07 1418.72 C 1112.24 1470.87 1045.51 1440.14 1028.78 1455.51 C 1015.8 1467.43 1045.14 1486.39 1043.42 1508.11 C 1042.57 1518.82 1036.34 1527.52 1028.35 1534.27 C 1022.13 1538.59 1014.92 1541.01 1007.32 1541.22 C 923.257 1543.05 850.723 1472.35 845.482 1389.28 C 839.64 1296.7 905.401 1222.15 997.919 1216.44 z M 1022.54 1504.18 C 1015.8 1487.2 998.352 1474.38 1006.23 1453.06 C 1009.6 1444.04 1016.59 1436.84 1025.5 1433.21 C 1041.69 1426.58 1058.14 1431.23 1074.85 1431.08 C 1102.4 1430.83 1129.05 1421.62 1141.56 1395.1 C 1151.51 1374 1145.09 1346.63 1137.06 1325.9 C 1123.04 1289.68 1095.79 1263.05 1060.28 1247.76 C 1039.06 1238.62 1018.1 1235.68 995.111 1237.32 C 953.815 1242.55 921.381 1258.23 895.224 1291.66 C 872.481 1320.99 862.365 1358.18 867.115 1395 C 874.982 1455.65 921.356 1505.97 981.53 1517.69 C 996.272 1520.56 1020.93 1526.06 1022.54 1504.18 z"/>
<path transform="translate(0,0)" fill="rgb(249,217,59)" d="M 1006.88 1261.09 C 1023.33 1260.01 1037.54 1272.51 1038.53 1288.98 C 1039.53 1305.44 1026.95 1319.57 1010.48 1320.48 C 994.14 1321.38 980.138 1308.92 979.146 1292.58 C 978.155 1276.25 990.545 1262.18 1006.88 1261.09 z"/>
<path transform="translate(0,0)" fill="rgb(233,66,64)" d="M 924.033 1385.11 C 940.315 1384.1 954.318 1396.51 955.277 1412.8 C 956.236 1429.08 943.786 1443.05 927.499 1443.96 C 911.279 1444.87 897.383 1432.48 896.428 1416.26 C 895.473 1400.04 907.819 1386.11 924.033 1385.11 z"/>
<path transform="translate(0,0)" fill="rgb(233,66,64)" d="M 931.419 1301.44 C 947.455 1299.82 961.78 1311.47 963.461 1327.5 C 965.143 1343.53 953.548 1357.9 937.526 1359.65 C 921.415 1361.4 906.945 1349.73 905.254 1333.61 C 903.563 1317.49 915.294 1303.07 931.419 1301.44 z"/>
<path transform="translate(0,0)" fill="rgb(47,151,207)" d="M 1076.38 1307.42 C 1086.57 1304.91 1097.32 1308.07 1104.52 1315.71 C 1111.72 1323.34 1114.26 1334.26 1111.15 1344.28 C 1108.04 1354.3 1099.78 1361.88 1089.53 1364.1 C 1073.98 1367.47 1058.61 1357.73 1055.02 1342.24 C 1051.43 1326.75 1060.94 1311.24 1076.38 1307.42 z"/>
<path transform="translate(0,0)" fill="rgb(31,57,84)" d="M 1529.08 1584.63 C 1563.09 1561.97 1599 1550.05 1640.08 1550.07 C 1645.93 1550.07 1652.04 1549.14 1657.62 1551.09 C 1661.56 1556 1660.18 1570.14 1660.1 1577.3 C 1666.52 1577.09 1678.52 1575.33 1682.6 1580.63 C 1683.75 1591.56 1683.46 1606.83 1683.49 1618.22 L 1683.47 1679.33 L 1683.36 1737.73 C 1683.34 1746.81 1684.69 1769.95 1680.33 1776.84 C 1671.09 1777.73 1656.87 1777.23 1647.13 1777.22 L 1588.07 1777.25 C 1565.95 1777.28 1556.26 1777.25 1535.68 1785.38 C 1524.61 1789.76 1510.26 1779.41 1499.45 1778.41 C 1459.83 1774.73 1416.4 1781.54 1377.94 1775.02 C 1374.55 1774.44 1375.29 1745.76 1375.29 1741.49 L 1375.25 1692.59 L 1375.38 1620.37 C 1375.44 1609.27 1375.38 1598.24 1375.57 1587.14 C 1375.78 1574.24 1388.56 1577.29 1398.4 1576.94 C 1398.2 1569.36 1396.46 1555.49 1401.12 1550.31 C 1449.2 1548.7 1489.03 1557.37 1529.08 1584.63 z M 1534.63 1593.6 C 1534.63 1648.11 1533.01 1712.63 1535.13 1766.43 C 1538.23 1765.06 1538.6 1765 1541.38 1762.88 C 1573.69 1742.01 1612.74 1737.43 1650.25 1736.56 L 1650.18 1621.84 C 1650.16 1606.03 1650.96 1575.99 1649.63 1561.2 C 1646.99 1559.7 1646.12 1560.35 1642.54 1560.45 C 1598.92 1562.43 1571.23 1571.21 1534.63 1593.6 z M 1386.21 1586.97 C 1384.77 1605.05 1385.85 1634.27 1385.89 1653.27 L 1386.07 1766.39 C 1422.54 1767.48 1461.09 1766.33 1498.1 1766.87 L 1499.37 1766.39 C 1471.97 1750.26 1436.33 1747.68 1405.6 1746.52 C 1403.15 1746.42 1398.86 1745.51 1398.73 1742.43 C 1397.67 1725.27 1398.06 1707.41 1398.14 1690.21 L 1398.28 1587.06 L 1386.21 1586.97 z M 1409 1560.19 C 1409.04 1618.49 1408.72 1678.51 1409.52 1736.72 C 1457.03 1737.7 1481.66 1741.92 1523.75 1766.82 C 1525.06 1710.07 1523.35 1651.79 1524.05 1594.84 C 1503.85 1577.51 1465.58 1564.93 1439.3 1561.91 C 1428.93 1560.72 1418.92 1561.08 1409 1560.19 z M 1659.95 1586.93 C 1659.98 1607.72 1661.92 1735.11 1658.3 1745.34 C 1650.32 1748.13 1634.18 1747.12 1625.16 1747.95 C 1603.43 1749.96 1575.34 1757.32 1555.93 1767.18 C 1559.6 1767.02 1568.52 1766.39 1571.75 1766.85 C 1603.48 1766.74 1643.3 1768.47 1673.79 1767.39 C 1671.81 1709.48 1672.99 1645.25 1672.85 1586.93 L 1659.95 1586.93 z"/>
<path transform="translate(0,0)" fill="rgb(31,57,84)" d="M 375.165 1170.33 C 390.534 1169.33 397.605 1176.46 407.166 1186.84 C 410.656 1181.34 414.561 1177.78 420.362 1174.63 C 428.97 1170.04 439.061 1169.11 448.366 1172.03 C 461.831 1176.3 467.054 1184.94 472.734 1196.55 C 494.875 1198.44 507.868 1215.33 505.175 1237.18 C 525.597 1251.31 530.337 1266.06 524.785 1289.55 C 541.498 1308.93 541.985 1328.26 527.654 1348.93 C 533.757 1371.24 530.204 1387.53 509.686 1400.12 C 505.08 1420.59 494.786 1432 472.867 1432.92 C 471.132 1435.29 469.278 1437.56 467.312 1439.73 C 458.971 1448.85 451.051 1452.74 438.915 1453.26 C 430.848 1453.02 416.33 1448.93 412.078 1441 C 410.771 1438.57 410.235 1437.67 407.917 1436.18 C 403.732 1436.62 399.26 1443.51 394.287 1447.15 C 387.327 1452.32 378.575 1454.45 370.019 1453.06 C 358.405 1451.09 348.716 1443.45 341.88 1434.17 C 322.201 1430.41 308.297 1422.07 306.133 1400.6 C 288.043 1390.03 278.125 1370.63 286.62 1350.3 C 272.801 1328.06 271.438 1311.05 288.698 1289.96 C 285.834 1264.86 287.23 1252.87 309.233 1237.04 C 308.323 1212.57 317.423 1200.78 341.955 1196.79 L 342.36 1195.89 L 343.055 1194.4 C 350.216 1178.85 358.251 1172.67 375.165 1170.33 z M 413.209 1197.99 C 412.332 1211.85 412.228 1226.21 412.495 1240.29 C 413 1266.96 405.85 1305.48 443.355 1308.26 C 466.641 1309.99 467.479 1285.33 475.363 1279.45 C 478.677 1279.86 479.479 1279.6 481.986 1281.74 C 483.74 1286.32 482.957 1289.09 480.657 1293.67 C 474.033 1306.88 466.627 1313.5 453.039 1318.53 C 464.163 1327.68 481.616 1327.47 484.896 1333.45 C 482.673 1341.36 469.186 1339.45 463.154 1337.45 C 453.405 1334.21 448.084 1328.45 442.63 1320.01 C 428.782 1317.36 424.111 1315.33 412.969 1306.65 L 412.611 1383.53 C 412.603 1392.46 412.099 1413.79 413.535 1421.51 C 414.41 1426.23 416.616 1430.6 419.893 1434.1 C 430.037 1444.92 448.843 1445.32 458.301 1433.9 C 461.47 1430.08 463.899 1426.24 466.366 1421.96 C 485.097 1422.18 492.408 1419.67 497.965 1400.67 C 485.576 1389.93 470.107 1383.98 457.273 1397.62 C 450.874 1404.42 454.416 1414.57 447.961 1418.06 C 442.977 1417.3 441.916 1413.11 441.533 1408.69 C 443.994 1396.37 446.415 1391.27 457.392 1383.94 C 458.86 1382.96 460.339 1382 461.827 1381.06 C 458.804 1376.49 457.995 1374.8 453.892 1371.04 C 447.198 1364.92 435.353 1366.01 434.246 1358.34 C 435.311 1356.39 435.365 1355.43 437.811 1355.01 C 455.116 1352.02 466.776 1365.86 472.818 1378.81 C 486.817 1378.57 493.881 1383.45 504.196 1391.98 C 516.96 1380.15 521.121 1374.34 518.691 1356.4 C 512.007 1360.03 486.091 1371.82 488.549 1355.83 C 493.066 1351.25 526.596 1351.84 526.597 1322.05 C 526.598 1313.3 523.984 1307.14 519.79 1299.43 C 512.441 1308.03 508.187 1312.7 496.825 1315.62 C 492.532 1314.74 494.384 1315.66 491.09 1312.69 C 490.674 1310.96 489.78 1308.25 491.735 1307 C 512.815 1293.48 528.679 1276.03 507.229 1252.9 C 496.947 1241.82 484.523 1244.18 470.63 1246.17 C 468.705 1243.32 468.677 1243.55 468.231 1240.17 C 472.28 1231.01 488.229 1234.22 496.744 1235.03 C 492.702 1217.35 484.681 1203.6 464.145 1206.85 C 452.842 1208.64 448.975 1222.99 441.173 1218.89 C 435.654 1207.81 447.54 1202.21 455.979 1199.05 C 457.968 1198.29 459.981 1197.59 462.016 1196.95 C 453.687 1186.46 449.818 1181.87 435.653 1181.08 C 423.833 1184.16 419.72 1187.21 413.209 1197.99 z M 373.376 1181.11 C 361.756 1184.85 359.377 1186.66 353.029 1196.89 C 360.875 1200.01 379.171 1208.11 374.719 1219.17 C 361.363 1223.55 362.551 1201.1 338.491 1207.76 C 331.152 1209.76 324.996 1214.76 321.538 1221.54 C 320.03 1224.52 318.73 1229.05 319.06 1232.42 C 328.444 1234.26 337.875 1232.47 345.715 1237.39 C 349.516 1244.18 342.468 1249.25 334.622 1244.95 C 323.414 1238.81 302.15 1252.34 299.563 1264.09 C 292.903 1286.94 305.079 1295.84 321.729 1307.4 C 322.506 1307.94 323.514 1312.92 323.356 1314.32 C 318.012 1320.1 302.037 1307.71 297.883 1303.52 C 296.553 1302.17 295.248 1300.79 293.97 1299.4 C 284.447 1318.56 283.376 1337.34 304.348 1348.18 C 310.196 1351.21 323.064 1352.05 326.384 1355.4 C 327.355 1359.66 327.557 1357.71 326.354 1361.46 C 319.213 1367.38 303.423 1361.24 296.477 1357.08 L 295.21 1357.91 C 292.978 1373.61 298.252 1381.98 310.511 1391.51 C 322.655 1381.7 326.532 1379.27 342.77 1378.96 C 344.62 1374.31 345.943 1371.07 348.916 1366.94 C 353.803 1360.14 371.97 1349.64 379.723 1356.06 C 380.576 1359.84 380.642 1357.98 379.242 1361.82 C 364.529 1367.64 360.461 1367.25 352.743 1380.87 C 364.476 1388.79 377.598 1402.55 370.296 1417.69 C 368.078 1417.4 364.805 1417.54 363.719 1415.13 C 359.731 1406.23 358.073 1394.37 347.469 1390.78 C 338.165 1387.63 322.213 1390.54 319.11 1401.22 C 316.169 1411.34 327.304 1419.99 336.091 1421.57 C 340.024 1422.28 345.047 1421.86 349.009 1421.71 C 358.159 1438.31 368.883 1447.81 388.153 1437.89 C 405.73 1428.84 401.819 1396.75 401.789 1379.81 L 401.362 1305.55 C 391.103 1315.62 386.328 1317.24 371.965 1319.59 C 365.846 1329.05 360.167 1335.57 348.646 1338.31 C 343.55 1339.52 330.524 1339.72 329.44 1333.18 C 334.159 1324.66 354.079 1329.69 359.582 1320.65 C 359.024 1318.47 356.962 1316.16 354.921 1315.62 C 343.544 1312.59 328.583 1293.7 334.776 1281.43 C 337.542 1279.44 336.053 1279.92 339.356 1279.8 C 345.886 1283.66 347.671 1317.03 379.003 1307.21 C 407.679 1298.23 401.651 1266.61 401.884 1242.7 C 402.107 1219.84 408.082 1179.66 373.376 1181.11 z"/>
<path transform="translate(0,0)" fill="rgb(31,57,84)" d="M 438.239 1236.53 C 450.476 1239.96 437.881 1251 438.749 1259.49 C 439.721 1269.01 449.13 1270.86 452.622 1278.55 C 452.166 1282.84 452.342 1281.47 449.403 1285.4 C 426.975 1279.45 421.285 1250.37 438.239 1236.53 z"/>
<path transform="translate(0,0)" fill="rgb(31,57,84)" d="M 372.553 1236.58 C 384.778 1239.44 387.428 1250 385.548 1261.56 C 383.803 1272.29 379.21 1277.91 370.546 1284.08 C 366.138 1284 365.618 1283.88 362.851 1281.53 C 362.165 1272.84 368.984 1272.45 372.586 1265.99 C 379.618 1253.37 365.955 1249.42 372.553 1236.58 z"/>
<path transform="translate(0,0)" fill="rgb(31,57,84)" d="M 533.45 409.389 C 552.135 407.048 579.222 416.03 594.394 426.923 C 639.498 459.305 650.739 523.466 617.745 568.846 C 602.279 589.923 579.173 604.103 553.378 608.35 C 526.353 612.552 500.951 605.364 479.049 589.37 C 475.052 593.474 468.752 598.422 466.552 603.085 C 468.324 616.734 451.289 630.529 442.311 639.956 C 426.769 655.919 401.639 692.237 377.92 671.421 C 372.754 666.945 369.674 660.528 369.414 653.697 C 369.301 650.13 370.452 643.567 372.938 640.676 C 390.038 621.985 411.093 600.122 430.822 584.306 C 442.285 575.116 440.117 585.329 456.476 567.089 C 446.161 552.455 439.893 535.357 438.307 517.523 C 435.823 491.228 444.149 465.054 461.367 445.026 C 480.816 422.087 504.046 411.976 533.45 409.389 z M 550.497 597.063 C 598.993 589.896 632.47 544.734 625.225 496.249 C 617.98 447.764 572.764 414.361 524.291 421.684 C 475.928 428.991 442.618 474.081 449.846 522.455 C 457.074 570.829 502.111 604.213 550.497 597.063 z M 397.557 667.34 C 407.371 662.606 444.927 620.448 455.517 609.672 C 452.573 606.527 440.314 593.152 437.726 591.64 C 426.61 602.975 415.262 614.08 403.688 624.947 C 397.017 631.323 387.57 639.395 382.361 646.694 C 375.089 656.882 385.538 668.786 397.557 667.34 z M 450.567 589.002 L 457.932 595.815 C 462.023 591.075 466.171 586.385 470.377 581.746 L 463.392 575.133 C 459.101 579.703 454.69 584.29 450.567 589.002 z"/>
<path transform="translate(0,0)" fill="rgb(31,57,84)" d="M 527.864 432.549 C 570.33 427.239 609.028 457.443 614.192 499.927 C 619.356 542.411 589.02 581.005 546.519 586.023 C 504.223 591.017 465.856 560.86 460.717 518.582 C 455.578 476.303 485.604 437.833 527.864 432.549 z M 548.461 574.811 C 584.555 568.881 609.017 534.824 603.108 498.726 C 597.2 462.628 563.157 438.147 527.056 444.034 C 490.924 449.926 466.418 484.003 472.331 520.131 C 478.244 556.259 512.336 580.745 548.461 574.811 z"/>
<path transform="translate(0,0)" fill="rgb(31,57,84)" d="M 532.49 455.381 C 533.256 455.286 534.024 455.208 534.794 455.148 C 539.21 454.825 543.524 456.08 543.895 461.021 C 535.003 472.848 506.949 454.219 492.745 507.752 C 490.606 509.84 491.457 509.113 488.397 510.223 C 478.162 504.659 490.462 480.021 496.366 473.117 C 506.791 460.925 517.094 457.033 532.49 455.381 z"/>
<path transform="translate(0,0)" fill="rgb(31,57,84)" d="M 1674.6 283.417 C 1679.48 282.919 1684.63 282.206 1688.99 284.655 C 1693.73 291.641 1692.29 300.088 1691.85 308.079 C 1688.53 367.871 1658.64 419.036 1611.83 454.722 C 1619.1 485.476 1610.61 507.834 1586.1 527.951 C 1578.21 534.432 1558.06 549.637 1548.1 548.74 C 1547.42 548.294 1546.73 547.848 1546.05 547.402 C 1546.78 536.057 1551.22 523.789 1550.87 512.249 C 1550.58 502.866 1549.92 501.402 1547.47 493.971 C 1530.5 500.243 1527.04 507.163 1512.81 492.35 C 1488.15 466.812 1478.6 473.002 1492.28 438.746 C 1469.09 431.201 1467.06 436.167 1444.92 441.81 C 1440.94 442.824 1440.5 443.171 1437.86 441.51 C 1436.58 438.748 1436.27 435.698 1437.44 432.84 C 1451.57 398.325 1485.13 360.925 1526.09 373.366 C 1530.43 367.278 1535.03 360.757 1539.76 354.995 C 1573.09 313.776 1621.78 287.927 1674.6 283.417 z M 1504.42 436.374 C 1520.25 448.008 1538.15 470.759 1550.39 479.713 C 1552.69 479.175 1552.83 479.245 1554.85 478.09 C 1604.37 452.778 1651.13 413.168 1670.55 359.501 C 1655.48 349.917 1635.99 335.404 1626.29 320.012 C 1623.84 316.134 1621.39 309.05 1617.93 308.94 C 1560.31 334.836 1529.22 380.935 1504.42 436.374 z M 1556.68 489.149 C 1562.7 503.408 1563.87 516.892 1560.45 532.049 C 1565.08 531.455 1577.78 521.105 1581.89 517.223 C 1594.46 505.363 1606.09 486.563 1604.13 468.659 C 1603.87 466.318 1603.59 464.251 1601.79 462.73 C 1587.59 472.606 1572.63 482.321 1556.68 489.149 z M 1500.24 447.365 C 1498.67 451.769 1497.36 455.43 1496.14 459.985 C 1502.59 467.011 1517.4 484.671 1526.61 488.983 C 1527.58 489.437 1531.02 488.16 1532.26 487.709 C 1535.05 486.442 1536.86 486.251 1538.19 484.124 C 1532.48 478.002 1505.99 451.292 1500.24 447.365 z M 1463.73 425.561 C 1476.49 424.301 1483.65 424.328 1496.09 428.768 C 1504.15 410.766 1509.88 399.251 1519.82 382.319 C 1517.47 380.849 1518.73 381.423 1515.49 381.435 C 1482.53 382.544 1466.92 400.636 1452.03 428.14 L 1463.73 425.561 z M 1674.3 294.363 C 1660.05 296.08 1643.49 298.915 1630.3 304.703 C 1636.4 316.87 1641.95 323.863 1652.37 332.76 C 1659.27 337.87 1666.34 342.759 1673.56 347.419 C 1677.98 332.8 1682.85 310.308 1680.73 295.099 L 1679.94 293.957 C 1677.2 293.981 1676.95 293.863 1674.3 294.363 z"/>
<path transform="translate(0,0)" fill="rgb(31,57,84)" d="M 1599.73 348.476 C 1615.08 346.157 1629.42 356.661 1631.84 371.993 C 1634.27 387.325 1623.86 401.738 1608.54 404.264 C 1593.08 406.814 1578.5 396.286 1576.05 380.807 C 1573.61 365.328 1584.24 350.817 1599.73 348.476 z M 1606.15 393.762 C 1612.42 392.927 1617.74 388.76 1620.06 382.875 C 1622.38 376.991 1621.32 370.313 1617.31 365.429 C 1613.29 360.544 1606.94 358.22 1600.72 359.356 C 1591.42 361.055 1585.17 369.868 1586.64 379.211 C 1588.12 388.553 1596.78 395.012 1606.15 393.762 z"/>
<path transform="translate(0,0)" fill="rgb(31,57,84)" d="M 1611.16 915.34 C 1622.07 914.501 1642.63 915.208 1654.07 915.224 L 1738.15 915.094 L 1808.58 914.861 C 1820.81 914.828 1834.18 914.233 1846.14 915.615 C 1857.3 917.648 1861.74 927.287 1861.85 937.367 C 1862.16 965.514 1861.54 993.529 1861.48 1021.6 L 1861.6 1075.42 C 1861.66 1101.11 1867.67 1125.42 1833.82 1125.9 C 1826.66 1126 1818.27 1127.81 1814.24 1120.72 C 1814.88 1110.48 1840.91 1119.76 1848.62 1110.24 C 1850.2 1108.75 1852.22 1104.94 1852.15 1102.77 C 1850.69 1057.76 1852.81 1012.37 1851.05 967.392 C 1821.24 967.901 1790.39 967.479 1760.5 967.445 C 1709.08 967.571 1654.72 968.277 1603.45 967.387 C 1603.7 983.723 1601.27 1103.29 1605.3 1109.09 C 1606.9 1111.39 1609.11 1113.33 1611.82 1114.18 C 1618.78 1116.35 1627.86 1115.51 1635.08 1115.5 L 1692.03 1115.14 C 1700.65 1115.07 1711.12 1114.62 1719.68 1115.55 C 1723.47 1115.96 1723.94 1117.12 1725.57 1119.49 C 1724.02 1123.52 1717.02 1125.35 1713.09 1125.25 C 1687.97 1124.51 1662.78 1125.31 1637.64 1125.16 C 1620.15 1125.06 1609.89 1127.92 1595.99 1115.59 C 1591.1 1102.3 1593.54 1043.75 1593.51 1025.21 L 1593.32 966.974 C 1593.26 946.55 1587.13 921.309 1611.16 915.34 z M 1603.01 957.774 C 1622.76 957.526 1642.5 957.426 1662.25 957.475 L 1851.77 957.61 C 1852.08 911.927 1834.13 924.471 1793.38 924.505 C 1751.89 924.419 1710.4 924.546 1668.9 924.886 C 1656.38 925.026 1618.79 923.249 1607.11 928.363 C 1602.02 930.593 1603.07 950.924 1603.01 957.774 z"/>
<path transform="translate(0,0)" fill="rgb(31,57,84)" d="M 1622.85 934.319 C 1626.56 934.1 1629.79 936.801 1630.25 940.487 C 1630.7 944.173 1628.21 947.576 1624.56 948.258 C 1621.98 948.739 1619.35 947.75 1617.73 945.691 C 1616.11 943.633 1615.77 940.845 1616.85 938.456 C 1617.92 936.068 1620.23 934.474 1622.85 934.319 z"/>
<path transform="translate(0,0)" fill="rgb(31,57,84)" d="M 1645.23 934.41 C 1648.88 933.948 1652.24 936.446 1652.85 940.072 C 1653.46 943.698 1651.1 947.159 1647.5 947.916 C 1645.04 948.433 1642.5 947.561 1640.87 945.644 C 1639.24 943.727 1638.79 941.072 1639.7 938.728 C 1640.61 936.384 1642.74 934.727 1645.23 934.41 z"/>
<path transform="translate(0,0)" fill="rgb(31,57,84)" d="M 1666.13 935.6 C 1669.26 933.824 1673.23 934.784 1675.2 937.793 C 1677.17 940.802 1676.46 944.825 1673.58 946.983 C 1671.55 948.505 1668.84 948.773 1666.55 947.678 C 1664.26 946.582 1662.77 944.304 1662.68 941.767 C 1662.59 939.23 1663.92 936.853 1666.13 935.6 z"/>
<path transform="translate(0,0)" fill="rgb(31,57,84)" d="M 1728.31 1044.77 C 1739.18 1047.6 1796.05 1083.3 1810.03 1091.1 C 1812.47 1092.46 1816.33 1096.03 1817.92 1098.73 L 1817.18 1101.01 C 1811.41 1107.09 1800.5 1110.02 1792.35 1112.9 C 1800.21 1125.16 1808.85 1135.1 1816.29 1148.31 C 1813.89 1150.77 1811.54 1152.61 1808.91 1154.78 C 1804.06 1158.21 1796.32 1164.66 1790.67 1164.61 C 1783.79 1160.07 1771.25 1138.55 1765.62 1130.41 C 1762.52 1135.76 1750.43 1153.14 1743.73 1149.72 C 1736.21 1134.16 1734.84 1097.72 1730.19 1079.62 C 1727.98 1071.01 1727.15 1058.95 1726.09 1050.04 C 1725.81 1047.68 1727.05 1046.59 1728.31 1044.77 z M 1750.38 1133.48 C 1760.32 1118.4 1766.79 1109.5 1778.91 1130.29 C 1783.17 1137.59 1788.65 1145.48 1793.4 1152.57 L 1802.88 1145.7 C 1797.22 1138.63 1781.02 1117.6 1779.35 1109.38 C 1781.55 1104.25 1795.07 1100.99 1800.72 1098.49 C 1779.63 1085.96 1758.45 1073.61 1737.16 1061.43 C 1740.78 1077.31 1748.66 1117.28 1750.38 1133.48 z"/>
<path transform="translate(0,0)" fill="rgb(31,57,84)" d="M 1256.33 1007.48 C 1267.32 1008.92 1264.98 1016.01 1264.84 1025.47 C 1268.58 1021.51 1272.27 1016.41 1277.54 1015.98 C 1281.17 1017.65 1280.04 1016.36 1281.49 1019.58 C 1279.72 1026.28 1270.82 1031.96 1265.09 1037.52 C 1264.77 1045.23 1264.91 1053.22 1264.94 1060.95 L 1283.4 1048.95 C 1285.22 1042.53 1287.73 1028.09 1293.58 1025.5 C 1296.83 1026.63 1295.68 1025.61 1297.26 1028.49 C 1297.42 1033.46 1295.14 1038.14 1293.35 1042.93 C 1298.15 1040.32 1305.7 1034.84 1310.5 1038.95 L 1310.13 1041.47 C 1307.48 1045.65 1302.67 1047.75 1298.22 1050.35 C 1304.72 1052.26 1312.12 1053.42 1314.03 1060.42 C 1306.74 1063.92 1296.52 1058.83 1289.55 1056.12 C 1283.73 1058.97 1275.53 1064.3 1269.78 1067.81 C 1275.84 1071.35 1280.5 1074.34 1286.3 1078.29 C 1292.53 1076.79 1307.73 1071.28 1312.48 1074.27 C 1313.28 1077.96 1313.45 1076.21 1311.87 1079.72 C 1308.05 1082.78 1303.48 1083.54 1298.66 1084.89 C 1303.12 1087.76 1312.34 1092.37 1310.67 1098.47 C 1305.21 1100.29 1299.07 1095.97 1294.3 1093.38 C 1295.53 1098.29 1298.64 1107 1294.52 1110.83 L 1292.28 1110.53 C 1280.8 1102.77 1293.44 1088.62 1264.5 1075.4 C 1264.26 1084.16 1264.19 1089.76 1264.91 1098.43 C 1269.39 1101.98 1283.75 1112.88 1278.11 1119.27 C 1272.1 1119.45 1268.78 1114.66 1264.99 1110.62 C 1264.94 1117.22 1265 1120.03 1263.75 1126.53 C 1259.12 1127.72 1261.09 1128.09 1257.48 1126.55 C 1255.26 1122.5 1256 1114.98 1256.04 1109.98 C 1251.84 1114.04 1247.93 1118.83 1242.01 1119.04 L 1241.47 1117.19 C 1244.62 1107.19 1248.55 1104.23 1255.79 1096.5 C 1256.14 1090.38 1255.86 1082.59 1255.8 1076.33 C 1248.7 1080.23 1243.37 1083.21 1236.69 1087.74 C 1235.52 1092.66 1232.82 1106.65 1229.26 1109.6 C 1225.69 1110.11 1227.32 1110.39 1224.17 1108.82 C 1221.71 1103.26 1226.68 1100.18 1225 1094.53 C 1220.63 1094.02 1215.83 1101.06 1209.54 1099.51 C 1207.39 1096.27 1207.85 1098.01 1208.17 1094.09 C 1210.31 1091.11 1216.96 1087.18 1220.31 1084.96 C 1216.03 1083.4 1206.93 1081.06 1207.22 1075.56 C 1213.88 1071.46 1224.92 1076.37 1231.59 1078.84 C 1239 1075.21 1244.62 1072.54 1251.52 1068.08 C 1244.76 1064.39 1237.87 1060.77 1231.44 1056.53 C 1225.89 1058.43 1210.6 1064.2 1206.73 1058.05 C 1209.82 1053.15 1216.91 1052.48 1222.21 1051.41 C 1217.96 1048.26 1206.71 1043.56 1207.8 1037.24 C 1215.82 1036.37 1220.12 1039.74 1227.18 1043.65 C 1225.43 1038.7 1222.99 1033.33 1223.1 1028.26 C 1224.91 1025.82 1223.74 1026.69 1226.92 1025.83 C 1231.98 1028.39 1234.75 1042.2 1237.28 1049.06 C 1242.44 1052.98 1249.98 1057.26 1255.69 1060.71 C 1255.86 1052.08 1255.9 1046.97 1255.02 1038.45 C 1251.04 1034.38 1240.21 1024.53 1239.43 1019.56 C 1240.92 1016.42 1239.79 1017.57 1242.99 1016.05 C 1247.21 1017.3 1249.63 1021.09 1253.7 1024.69 L 1255.26 1024.58 C 1257.35 1020.44 1256.57 1012.29 1256.33 1007.48 z"/>
<path transform="translate(0,0)" fill="rgb(31,57,84)" d="M 1292.45 872.087 C 1293.91 872.025 1295.37 872 1296.83 872.011 C 1323.85 872.376 1323.75 912.984 1306.62 928.78 C 1297.88 929.672 1263.71 929.719 1260.27 930.723 L 1260.46 931.923 C 1265.04 933.97 1281.63 933.067 1287.67 933 C 1288.3 944.101 1290.42 949.345 1280.3 956.007 C 1269.77 960.027 1235.85 963.993 1232.57 946.391 C 1230.92 937.528 1231.1 915.145 1236.21 908.206 C 1242.54 899.623 1264.93 904.56 1274.27 903.005 C 1299.35 899.169 1286.94 879.287 1292.45 872.087 z M 1277.59 949.397 C 1279.19 948.642 1280.22 947.039 1280.23 945.272 C 1280.24 943.505 1279.24 941.886 1277.65 941.109 C 1276.07 940.331 1274.17 940.531 1272.79 941.624 C 1270.95 943.071 1270.49 945.668 1271.72 947.658 C 1272.95 949.648 1275.48 950.397 1277.59 949.397 z"/>
<path transform="translate(0,0)" fill="rgb(31,57,84)" d="M 1250.05 844.334 C 1264.53 842.809 1287.94 841.208 1288.2 861.243 C 1288.31 869.313 1289.56 890.116 1283.98 895.508 C 1273.29 905.838 1250.03 895.495 1237.06 902.456 C 1226.51 908.112 1228.32 920.302 1229.23 930.055 L 1215.28 928.751 C 1199.23 924.075 1199.18 890.063 1207.88 879.835 C 1216.54 869.65 1244.11 873.559 1257.55 872.439 L 1258.8 871.441 L 1259.06 872.247 L 1259.69 871.554 L 1260.05 871.576 C 1253.21 869.216 1240.12 869.917 1232.57 870.145 C 1232.22 852.236 1231.02 847.424 1250.05 844.334 z M 1248.02 862.881 C 1249.19 859.406 1249.68 858.781 1248.62 855.233 C 1246.07 852.65 1244.06 852.665 1240.28 852.393 C 1240.29 855.876 1239.94 857.686 1241.67 860.702 C 1244.54 862.822 1244.41 862.593 1248.02 862.881 z"/>
<path transform="translate(0,0)" fill="rgb(31,57,84)" d="M 1239.3 684.521 C 1245.35 684.241 1251.02 684.485 1257.07 684.676 C 1269.14 713.058 1279.68 743.907 1291.65 772.712 C 1296.69 771.74 1301.03 770.089 1305.87 768.433 C 1307.96 773.341 1309.7 779.162 1311.38 784.282 C 1300.96 788.818 1290.71 791.539 1279.82 794.494 C 1272.65 778.972 1266.62 761.11 1259.95 744.975 L 1259.58 742.68 C 1257.72 743.217 1233.69 784.006 1229.6 789.949 L 1209.78 789.778 C 1217.52 771.034 1238.75 736.933 1250.06 719.31 C 1248.35 713.079 1245.7 707.229 1243.19 701.267 L 1229.2 701.943 C 1229.66 694.772 1229.49 691.95 1228.84 684.789 L 1239.3 684.521 z"/>
<path transform="translate(0,0)" fill="rgb(31,57,84)" d="M 1268.47 536.44 C 1285.93 536.713 1291.99 539.084 1304.82 550.532 C 1300.54 555.268 1296.22 559.96 1291.85 564.606 C 1242.4 529.951 1223.37 609.912 1272.09 611.069 C 1282.35 611.313 1287.97 598.357 1295.58 604.145 C 1300.4 608.115 1301.36 609.372 1305.12 614.152 C 1288.05 632.669 1259.18 634.268 1238.96 619.541 C 1219.17 605.124 1216.4 571.481 1232.1 553.144 C 1241.83 541.781 1253.98 537.726 1268.47 536.44 z"/>
<path transform="translate(0,0)" fill="rgb(31,57,84)" d="M 1476.68 476.873 C 1480.39 476.993 1480.29 476.845 1483.76 478.648 C 1485.59 481.725 1485.2 480.058 1484.62 483.898 C 1482.37 487.541 1476.19 489.262 1472.01 492.36 C 1459.38 501.701 1456.6 521.01 1454.46 535.488 C 1465.8 532.583 1484.39 527.975 1492.62 519.327 C 1499.58 512.016 1494.68 506.336 1505.39 501.065 C 1512.03 501.845 1509.66 510.097 1508.54 514.739 C 1503.23 532.464 1461.1 551.154 1446.44 546.016 C 1438.06 539.273 1446.85 514.805 1449.9 506.031 C 1454.68 492.324 1463.3 482.674 1476.68 476.873 z"/>
<path transform="translate(0,0)" fill="rgb(31,57,84)" d="M 1207.91 526.267 C 1212.89 525.453 1217.92 527.411 1221.04 531.377 C 1224.16 535.344 1224.88 540.692 1222.92 545.341 C 1220.95 549.989 1216.62 553.204 1211.6 553.733 C 1204.14 554.52 1197.41 549.228 1196.41 541.792 C 1195.41 534.356 1200.51 527.476 1207.91 526.267 z"/>
</svg>